# xmcd
#
# Track frame offsets:
#	150
#	13765
#	30260
#	45710
#	63207
#	77697
#	94172
#	106802
#	123602
#	138972
#	154497
#	171222
#	186510
#	203130
#	226855
#
# Disc length: 3312
#
# Revision: 1
# Processed by: cddbd v1.5.1PL0 Copyright (c) Steve Scherf et al.
# Submitted via: VisiTrax 2.9.5.180 - For more info visit www.synapsa.com
# Normalized: r0:DSETVAR1
#
DISCID=c20cee0f
DTITLE=Various Artist - CDX 100 January 1995
DYEAR=1995
DGENRE=
TTITLE0=Steve Kolander - Black dresses
TTITLE1=Billy Ray Cyrus - Deja blue
TTITLE2=Rhett Akins - I brake for brunettes
TTITLE3=Mavericks - I should have been true
TTITLE4=Ricky Van Shelton - Lola's love
TTITLE5=Chely Wright - Sea of cowboy hats
TTITLE6=Terry McBride and The Ride - Somebody will
TTITLE7=Lari White - That's how you know (when you're in love)
TTITLE8=Randy Travis - The box
TTITLE9=Trisha Yearwood - Thinkin' about you
TTITLE10=Clay Walker - This woman and this man
TTITLE11=George Strait - You can't make a heart love somebody
TTITLE12=Steve Kolander - Black dresses (dance mix)
TTITLE13=Rhett Akins - I brake for brunettes (dance mix)
TTITLE14=Chely Wright - Sea of cowboy hats (dance mix)
EXTD=
EXTT0=
EXTT1=
EXTT2=
EXTT3=
EXTT4=
EXTT5=
EXTT6=
EXTT7=
EXTT8=
EXTT9=
EXTT10=
EXTT11=
EXTT12=
EXTT13=
EXTT14=
PLAYORDER=
